<svg xmlns="http://www.w3.org/2000/svg" xmlns:xlink="http://www.w3.org/1999/xlink" version="1.1" width="789.0" height="232.0" viewBox="239 258 789 232">
<defs>
<path id="font_1_43" d="M.6118164 0H.55322268V.32714845H.14941406V0H.09082031V.7109375H.14941406V.37695313H.55322268V.7109375H.6118164V0Z"/>
<path id="font_1_82" d="M.044433595 .27197267C.044433595 .34977214 .06575521 .41357423 .10839844 .4633789 .15104167 .5131836 .20751953 .53808596 .27783204 .53808596 .34847007 .53808596 .4051107 .5131836 .4477539 .4633789 .49039714 .41357423 .51171877 .34977214 .51171877 .27197267V.25585938C.51171877 .17773438 .49047853 .113850917 .44799806 .064208988 .40551759 .014567058 .3491211-.010253906 .2788086-.010253906 .20784505-.010253906 .15104167 .014567058 .10839844 .064208988 .06575521 .113850917 .044433595 .17773438 .044433595 .25585938V.27197267M.103027347 .25585938C.103027347 .19466146 .118489589 .14322917 .14941406 .1015625 .18033855 .059895833 .22347005 .0390625 .2788086 .0390625 .33317057 .0390625 .37589518 .059895833 .40698243 .1015625 .43806968 .14322917 .45361329 .19466146 .45361329 .25585938V.27197267C.45361329 .332194 .43798829 .38330079 .40673829 .42529298 .37548829 .46728517 .33251954 .48828126 .27783204 .48828126 .22314453 .48828126 .18033855 .46728517 .14941406 .42529298 .118489589 .38330079 .103027347 .332194 .103027347 .27197267V.25585938Z"/>
<path id="font_1_85" d="M.31835938 .47802735 .27685548 .48095704C.24007161 .48095704 .20987956 .47062174 .1862793 .44995118 .16267903 .4292806 .14583333 .4008789 .13574219 .3647461V0H.07714844V.5283203H.12841797L.13574219 .4404297V.4345703C.15104167 .4671224 .17154949 .49251304 .19726563 .5107422 .22298177 .5289714 .25358073 .53808596 .2890625 .53808596 .29622398 .53808596 .3030599 .5375163 .3095703 .53637698 .31608073 .5352376 .3214518 .5340169 .3256836 .53271487L.31835938 .47802735Z"/>
<path id="font_1_76" d="M.14257813 0H.084472659V.5283203H.14257813V0M.14257813 .6796875H.084472659V.76171877H.14257813V.6796875Z"/>
<path id="font_1_93" d="M.11621094 .049316408H.45947267V0H.043945314V.04296875L.3623047 .47802735H.053710939V.5283203H.43603517V.48486329L.11621094 .049316408Z"/>
<path id="font_1_81" d="M.12890625 .5283203 .13427735 .43652345C.15152996 .46875 .17447917 .49373374 .203125 .5114746 .23177083 .5292155 .26578776 .53808596 .30517579 .53808596 .36246745 .53808596 .40608726 .5205892 .43603517 .4855957 .46598307 .4506022 .48095704 .3959961 .48095704 .32177735V0H.42236329V.32128907C.42236329 .38183595 .41105143 .42464195 .38842774 .44970704 .36580406 .47477214 .33365885 .4873047 .2919922 .4873047 .25032554 .4873047 .2167155 .47705079 .19116211 .45654298 .16560872 .43603517 .14713542 .40852867 .13574219 .37402345V0H.07714844V.5283203H.12890625Z"/>
<path id="font_1_87" d="M.16845703 .6635742V.5283203H.28466798V.48046876H.16845703V.13623047C.16845703 .10172526 .17472331 .07722982 .18725586 .06274414 .1997884 .048258466 .21647136 .041015626 .23730469 .041015626 .24446614 .041015626 .25138346 .041422529 .25805665 .042236329 .26472984 .04305013 .2726237 .044433595 .28173829 .04638672L.29052735 .0029296876C.28271485-.0009765625 .2730306-.0041503908 .2614746-.006591797 .24991863-.009033203 .23844402-.010253906 .22705078-.010253906 .1899414-.010253906 .16105144 .0014648438 .14038086 .024902344 .11971029 .048339845 .109375 .08544922 .109375 .13623047V.48046876H.018066407V.5283203H.109375V.6635742H.16845703Z"/>
<path id="font_1_68" d="M.4116211 0C.40804038 .018554688 .40535484 .034505208 .40356446 .047851564 .40177409 .061197919 .4008789 .07486979 .4008789 .08886719 .38264976 .060221357 .35709635 .036539716 .32421876 .017822266 .29134117-.0008951823 .25358073-.010253906 .2109375-.010253906 .15917969-.010253906 .11905924 .0034993489 .09057617 .03100586 .062093099 .05851237 .047851564 .09586588 .047851564 .1430664 .047851564 .19026692 .06852213 .22851563 .10986328 .2578125 .15120442 .28710938 .20491536 .3017578 .2709961 .3017578H.4008789V.3671875C.4008789 .4049479 .38891603 .4345703 .36499024 .4560547 .34106446 .47753907 .30729167 .48828126 .26367188 .48828126 .22363281 .48828126 .19132488 .47851563 .16674805 .45898438 .14217122 .43945313 .12988281 .4148763 .12988281 .3852539H.075683597L.07470703 .3881836C.072753909 .42789714 .08976237 .46280924 .12573242 .49291993 .16170247 .5230306 .20865886 .53808596 .26660157 .53808596 .32454429 .53808596 .37109376 .5232747 .40625 .49365235 .44140626 .46402995 .45898438 .42154948 .45898438 .36621095V.10644531C.45898438 .087890628 .46004234 .06982422 .4621582 .052246095 .46427409 .03466797 .46777345 .017252604 .47265626 0H.4116211M.21728516 .041503908C.26220704 .041503908 .30110679 .052164716 .33398438 .07348633 .36686198 .094807948 .38916017 .12223307 .4008789 .15576172V.25683595H.2705078C.22298177 .25683595 .18375652 .2455241 .15283203 .22290039 .121907558 .20027669 .10644531 .17301433 .10644531 .14111328 .10644531 .11116537 .11629232 .08707682 .13598633 .068847659 .15568035 .05061849 .18277996 .041503908 .21728516 .041503908Z"/>
<path id="font_1_79" d="M.14257813 0H.084472659V.76171877H.14257813V0Z"/>
<path id="font_1_57" d="M.29101563 .12451172 .30517579 .07470703H.30810548L.32226563 .12451172 .5361328 .7109375H.5991211L.33447267 0H.2788086L.014160156 .7109375H.07763672L.29101563 .12451172Z"/>
<path id="font_1_72" d="M.27783204-.010253906C.20947266-.010253906 .15397136 .013916016 .111328128 .06225586 .0686849 .1105957 .04736328 .1726888 .04736328 .24853516V.27539063C.04736328 .3515625 .06892904 .41438804 .11206055 .4638672 .15519206 .5133464 .20865886 .53808596 .27246095 .53808596 .33658854 .53808596 .38614909 .51749679 .42114259 .47631837 .45613609 .43513999 .4736328 .37972007 .4736328 .3100586V.26464845H.10595703V.24853516C.10595703 .1883138 .12117513 .13834636 .15161133 .09863281 .18204753 .05891927 .2241211 .0390625 .27783204 .0390625 .3100586 .0390625 .339681 .044352216 .36669923 .05493164 .39371745 .06551107 .41617839 .0797526 .43408204 .09765625L.45898438 .057617189C.4404297 .038085939 .41609703 .021891276 .38598634 .009033203 .35587565-.0038248699 .31982423-.010253906 .27783204-.010253906M.27246095 .48828126C.22753906 .48828126 .19059246 .47216798 .1616211 .4399414 .13264974 .40771485 .115722659 .36686198 .110839847 .3173828L.11230469 .31445313H.41503907V.32666017C.41503907 .37353517 .40275065 .41219078 .37817384 .44262696 .35359703 .47306315 .31835938 .48828126 .27246095 .48828126Z"/>
<path id="font_1_70" d="M.2705078 .0390625C.30794273 .0390625 .34106446 .050130208 .36987306 .072265628 .39868165 .09440104 .41308595 .12516277 .41308595 .16455078H.46533204L.4663086 .1616211C.4676107 .11279297 .44840495 .0719401 .4086914 .0390625 .36897788 .006184896 .32291667-.010253906 .2705078-.010253906 .20019531-.010253906 .14542644 .014485677 .10620117 .063964847 .066975917 .11344401 .04736328 .17675781 .04736328 .25390626V.27441407C.04736328 .35123698 .06689453 .41438804 .10595703 .4638672 .14501953 .5133464 .19970703 .53808596 .27001954 .53808596 .32666017 .53808596 .3738607 .5209961 .4116211 .4868164 .4493815 .45263673 .4676107 .40771485 .4663086 .35205079L.46533204 .3491211H.41308595C.41308595 .3914388 .3992513 .42521159 .37158204 .45043946 .34391276 .47566734 .3100586 .48828126 .27001954 .48828126 .21468099 .48828126 .17350261 .4679362 .14648438 .4272461 .11946615 .386556 .10595703 .33561198 .10595703 .27441407V.25390626C.10595703 .19173177 .11946615 .14038086 .14648438 .099853519 .17350261 .059326173 .21484375 .0390625 .2705078 .0390625Z"/>
<path id="font_2_36" d="M.4501953 .18310547H.18261719L.119140628 0H.020996094L.27734376 .7109375H.35986329L.61083987 0H.5126953L.4501953 .18310547M.21044922 .26367188H.42285157L.31933595 .56884768H.31640626L.21044922 .26367188Z"/>
<path id="font_2_54" d="M.46191407 .17919922C.46191407 .21142578 .45035807 .23844402 .4272461 .2602539 .40413413 .2820638 .363444 .3006185 .30517579 .31591798 .23291016 .33382163 .17651367 .3601888 .13598633 .39501954 .095458988 .42985026 .07519531 .4736328 .07519531 .5263672 .07519531 .58203127 .09700521 .62841799 .140625 .66552737 .1842448 .7026367 .24088542 .7211914 .31054688 .7211914 .38541667 .7211914 .44506837 .6999512 .48950196 .6574707 .53393557 .61499026 .5555013 .5654297 .5541992 .50878909L.5527344 .5058594H.4609375C.4609375 .54622396 .44685874 .57958987 .41870118 .60595706 .3905436 .6323242 .3544922 .6455078 .31054688 .6455078 .265625 .6455078 .23120117 .63460287 .20727539 .61279299 .18334961 .5909831 .17138672 .5626628 .17138672 .52783206 .17138672 .49690757 .18448894 .47111003 .21069336 .45043946 .23689778 .4297689 .27945964 .4116211 .3383789 .3959961 .4099935 .3774414 .46451823 .35009767 .5019531 .31396485 .539388 .27783204 .55810549 .23323567 .55810549 .18017578 .55810549 .12288412 .5355632 .076822917 .49047853 .041992189 .4453939 .0071614587 .386556-.010253906 .31396485-.010253906 .24527996-.010253906 .18465169 .008951823 .13208008 .04736328 .07950846 .08577474 .054036458 .13720703 .055664064 .20166016L.056640626 .20458985H.1484375C.1484375 .15999349 .16536458 .12556966 .19921875 .10131836 .23307292 .077067058 .27132163 .064941409 .31396485 .064941409 .35953776 .064941409 .3955892 .07519531 .42211915 .095703128 .44864909 .11621094 .46191407 .14404297 .46191407 .17919922Z"/>
<path id="font_2_44" d="M.18945313 0H.09277344V.7109375H.18945313V0Z"/>
<path id="font_2_49" d="M.62060549 0H.52441409L.1821289 .54296877 .17919922 .5419922V0H.08300781V.7109375H.17919922L.5214844 .16845703 .52441409 .1694336V.7109375H.62060549V0Z"/>
<path id="font_2_55" d="M.5800781 .6352539H.34570313V0H.24951172V.6352539H.018066407V.7109375H.5800781V.6352539Z"/>
<path id="font_2_56" d="M.6074219 .7109375V.23876953C.6074219 .16064453 .58203127 .099609378 .53125 .055664064 .48046876 .01171875 .41503907-.010253906 .33496095-.010253906 .2578125-.010253906 .19466146 .01180013 .14550781 .055908204 .096354167 .10001627 .071777347 .16097005 .071777347 .23876953V.7109375H.16796875V.23876953C.16796875 .18440755 .18351238 .1418457 .21459961 .111083988 .24568685 .080322269 .28580729 .064941409 .33496095 .064941409 .38704429 .064941409 .42944337 .080322269 .4621582 .111083988 .49487306 .1418457 .51123049 .18440755 .51123049 .23876953V.7109375H.6074219Z"/>
<path id="font_2_53" d="M.17919922 .30810548V0H.08300781V.7104492H.32617188C.40397135 .7104492 .4633789 .6931966 .50439456 .6586914 .54541018 .6241862 .56591799 .57405599 .56591799 .5083008 .56591799 .47184245 .5563965 .44010417 .5373535 .41308595 .51831057 .38606773 .4905599 .36458335 .45410157 .3486328 .49316407 .3359375 .52124026 .3153483 .5383301 .28686524 .5554199 .25838218 .56396487 .22314453 .56396487 .18115235V.11425781C.56396487 .0921224 .56640627 .072265628 .57128909 .0546875 .5761719 .037109376 .58463546 .022786459 .5966797 .01171875V0H.4975586C.48486329 .011067708 .47672526 .02734375 .47314454 .048828126 .4695638 .0703125 .46777345 .092447917 .46777345 .115234378V.18017578C.46777345 .21858724 .45654298 .24951172 .43408204 .27294923 .4116211 .29638673 .3815104 .30810548 .34375 .30810548H.17919922M.17919922 .38378907H.31640626C.37076823 .38378907 .4099121 .39412437 .4338379 .41479493 .45776368 .43546549 .46972657 .46695964 .46972657 .50927737 .46972657 .5493164 .4580892 .58032229 .43481446 .6022949 .4115397 .6242676 .37532554 .6352539 .32617188 .6352539H.17919922V.38378907Z"/>
<path id="font_2_3" d=""/>
<path id="font_2_57" d="M.29882813 .18652344 .3149414 .1274414H.3178711L.33398438 .18652344 .5175781 .7109375H.62158206L.35742188 0H.27490235L.0107421879 .7109375H.115234378L.29882813 .18652344Z"/>
<path id="font_1_48" d="M.4326172 .08496094H.43554688L.7001953 .7109375H.7714844V0H.7128906V.59716799L.70996096 .59765627 .45507813 0H.41308595L.15234375 .6123047 .14941406 .6118164V0H.09082031V.7109375H.16894531L.4326172 .08496094Z"/>
<path id="font_1_74" d="M.056152345 .25976563C.056152345 .34407554 .07397461 .4115397 .10961914 .4621582 .14526367 .5127767 .19498699 .53808596 .25878907 .53808596 .29622398 .53808596 .32877604 .5300293 .3564453 .513916 .3841146 .49780274 .40690104 .4749349 .4248047 .4453125L.43310548 .5283203H.48046876V-.0029296876C.48046876-.0703125 .46191407-.12223307 .4248047-.1586914 .3876953-.19514974 .3351237-.2133789 .26708985-.2133789 .24169922-.2133789 .21459961-.21028646 .18579102-.20410156 .15698242-.19791667 .13183594-.18945313 .11035156-.17871094L.12158203-.12939453C.14274089-.1398112 .1652832-.14770508 .18920899-.15307617 .21313477-.15844727 .23876953-.16113281 .26611329-.16113281 .31819663-.16113281 .35709635-.14778646 .3828125-.12109375 .40852867-.09440104 .42138673-.05501302 .42138673-.0029296876V.071777347C.40348307 .045410158 .38077799 .025146485 .35327149 .010986328 .32576499-.0031738282 .2939453-.010253906 .2578125-.010253906 .19466146-.010253906 .14526367 .0133463549 .10961914 .060546876 .07397461 .1077474 .056152345 .17073567 .056152345 .24951172V.25976563M.114746097 .24951172C.114746097 .18570964 .12760417 .13492839 .15332031 .09716797 .17903646 .05940755 .21761067 .040527345 .26904298 .040527345 .30615235 .040527345 .33732096 .048909505 .36254884 .06567383 .3877767 .08243815 .4073893 .10546875 .42138673 .13476563V.38671876C.40804038 .41634117 .38907878 .44051109 .36450196 .45922853 .33992515 .47794596 .308431 .4873047 .27001954 .4873047 .21858724 .4873047 .17985027 .46614585 .1538086 .42382813 .12776692 .3815104 .114746097 .3268229 .114746097 .25976563V.24951172Z"/>
<path id="font_1_80" d="M.12695313 .5283203 .13232422 .44140626C.1492513 .47200523 .17179363 .49576823 .19995117 .5126953 .22810872 .5296224 .261556 .53808596 .30029298 .53808596 .34065757 .53808596 .37434898 .5284017 .4013672 .5090332 .4283854 .4896647 .4477539 .4601237 .45947267 .42041017 .4754232 .457194 .49812828 .4860026 .5275879 .50683596 .55704757 .52766928 .59261068 .53808596 .63427737 .53808596 .69059249 .53808596 .73413088 .51936849 .7648926 .4819336 .7956543 .4444987 .81103518 .386556 .81103518 .30810548V0H.7524414V.30908204C.7524414 .3741862 .74088546 .42016603 .71777346 .44702149 .69466146 .47387696 .66276046 .4873047 .6220703 .4873047 .57747396 .4873047 .54296877 .4737142 .5185547 .4465332 .49414063 .4193522 .47867839 .38427735 .47216798 .3413086 .47216798 .33772788 .47224937 .33414714 .4724121 .3305664 .47257487 .3269857 .47265626 .32242839 .47265626 .31689454V0H.41357423V.30908204C.41357423 .37288413 .40193687 .41853843 .3786621 .44604493 .35538737 .47355143 .32340495 .4873047 .28271485 .4873047 .24169922 .4873047 .20906575 .4769694 .18481446 .45629884 .16056316 .43562828 .14355469 .40771485 .13378906 .3725586V0H.07519531V.5283203H.12695313Z"/>
<clipPath id="clip_3">
<path transform="matrix(1,0,0,-1,0,1080)" d="M0 0H1920V1080H0Z"/>
</clipPath>
<clipPath id="clip_4">
<path transform="matrix(1,0,0,-1,0,1080)" d="M0 0H1920V1080H0Z"/>
</clipPath>
<clipPath id="clip_5">
<path transform="matrix(1,0,0,-1,0,1080)" d="M0 0H1920V1080H0Z"/>
</clipPath>
<clipPath id="clip_6">
<path transform="matrix(1,0,0,-1,0,1080)" d="M0 0H1920V1080H0Z"/>
</clipPath>
</defs>
<use data-text="H" xlink:href="#font_1_43" transform="matrix(30,0,0,-30,189,223.93213)"/>
<use data-text="o" xlink:href="#font_1_82" transform="matrix(30,0,0,-30,210.09,223.93213)"/>
<use data-text="r" xlink:href="#font_1_85" transform="matrix(30,0,0,-30,226.8,223.93213)"/>
<use data-text="i" xlink:href="#font_1_76" transform="matrix(30,0,0,-30,237.03,223.93213)"/>
<use data-text="z" xlink:href="#font_1_93" transform="matrix(30,0,0,-30,243.84,223.93213)"/>
<use data-text="o" xlink:href="#font_1_82" transform="matrix(30,0,0,-30,258.273,223.93213)"/>
<use data-text="n" xlink:href="#font_1_81" transform="matrix(30,0,0,-30,274.983,223.93213)"/>
<use data-text="t" xlink:href="#font_1_87" transform="matrix(30,0,0,-30,291.693,223.93213)"/>
<use data-text="a" xlink:href="#font_1_68" transform="matrix(30,0,0,-30,301.353,223.93213)"/>
<use data-text="l" xlink:href="#font_1_79" transform="matrix(30,0,0,-30,317.493,223.93213)"/>
<use data-text="V" xlink:href="#font_1_57" transform="matrix(30,0,0,-30,1246.68,223.93213)"/>
<use data-text="e" xlink:href="#font_1_72" transform="matrix(30,0,0,-30,1264.4341,223.93213)"/>
<use data-text="r" xlink:href="#font_1_85" transform="matrix(30,0,0,-30,1279.884,223.93213)"/>
<use data-text="t" xlink:href="#font_1_87" transform="matrix(30,0,0,-30,1290.363,223.93213)"/>
<use data-text="i" xlink:href="#font_1_76" transform="matrix(30,0,0,-30,1300.0231,223.93213)"/>
<use data-text="c" xlink:href="#font_1_70" transform="matrix(30,0,0,-30,1306.8331,223.93213)"/>
<use data-text="a" xlink:href="#font_1_68" transform="matrix(30,0,0,-30,1322.2831,223.93213)"/>
<use data-text="l" xlink:href="#font_1_79" transform="matrix(30,0,0,-30,1338.4231,223.93213)"/>
<path transform="matrix(1,0,0,-1,1128.5177,922.3937)" stroke-width=".5" stroke-linecap="butt" stroke-miterlimit="4" stroke-linejoin="miter" fill="none" stroke="#000000" d="M0 0V720.962"/>
<path transform="matrix(1,0,0,-1,189,561.9129)" stroke-width=".5" stroke-linecap="butt" stroke-miterlimit="4" stroke-linejoin="miter" fill="none" stroke="#000000" d="M0 0H889"/>
<use data-text="A" xlink:href="#font_2_36" transform="matrix(30,0,0,-30,189,156.52759)"/>
<use data-text="S" xlink:href="#font_2_54" transform="matrix(30,0,0,-30,207.96,156.52759)"/>
<use data-text="S" xlink:href="#font_2_54" transform="matrix(30,0,0,-30,226.29001,156.52759)"/>
<use data-text="I" xlink:href="#font_2_44" transform="matrix(30,0,0,-30,244.62001,156.52759)"/>
<use data-text="N" xlink:href="#font_2_49" transform="matrix(30,0,0,-30,253.11002,156.52759)"/>
<use data-text="A" xlink:href="#font_2_36" transform="matrix(30,0,0,-30,274.518,156.52759)"/>
<use data-text="T" xlink:href="#font_2_55" transform="matrix(30,0,0,-30,291.597,156.52759)"/>
<use data-text="U" xlink:href="#font_2_56" transform="matrix(30,0,0,-30,309.537,156.52759)"/>
<use data-text="R" xlink:href="#font_2_53" transform="matrix(30,0,0,-30,329.847,156.52759)"/>
<use data-text="A" xlink:href="#font_2_36" transform="matrix(30,0,0,-30,348.927,156.52759)"/>
<use data-text="S" xlink:href="#font_2_54" transform="matrix(30,0,0,-30,367.887,156.52759)"/>
<use data-text=" " xlink:href="#font_2_3" transform="matrix(30,0,0,-30,386.21699,156.52759)"/>
<use data-text="V" xlink:href="#font_2_57" transform="matrix(30,0,0,-30,393.68699,156.52759)"/>
<use data-text="I" xlink:href="#font_2_44" transform="matrix(30,0,0,-30,412.64698,156.52759)"/>
<use data-text="S" xlink:href="#font_2_54" transform="matrix(30,0,0,-30,421.13697,156.52759)"/>
<use data-text="U" xlink:href="#font_2_56" transform="matrix(30,0,0,-30,439.46696,156.52759)"/>
<use data-text="A" xlink:href="#font_2_36" transform="matrix(30,0,0,-30,459.46797,156.52759)"/>
<use data-text="I" xlink:href="#font_2_44" transform="matrix(30,0,0,-30,478.42796,156.52759)"/>
<use data-text="S" xlink:href="#font_2_54" transform="matrix(30,0,0,-30,486.91795,156.52759)"/>
<use data-text="M" xlink:href="#font_1_48" transform="matrix(30,0,0,-30,189,642.49758)"/>
<use data-text="o" xlink:href="#font_1_82" transform="matrix(30,0,0,-30,214.86,642.49758)"/>
<use data-text="n" xlink:href="#font_1_81" transform="matrix(30,0,0,-30,231.57,642.49758)"/>
<use data-text="o" xlink:href="#font_1_82" transform="matrix(30,0,0,-30,248.28002,642.49758)"/>
<use data-text="g" xlink:href="#font_1_74" transform="matrix(30,0,0,-30,264.99003,642.49758)"/>
<use data-text="r" xlink:href="#font_1_85" transform="matrix(30,0,0,-30,281.7,642.49758)"/>
<use data-text="a" xlink:href="#font_1_68" transform="matrix(30,0,0,-30,291.93003,642.49758)"/>
<use data-text="m" xlink:href="#font_1_80" transform="matrix(30,0,0,-30,308.07005,642.49758)"/>
<use data-text="a" xlink:href="#font_1_68" transform="matrix(30,0,0,-30,334.65003,642.49758)"/>
<g clip-path="url(#clip_3)">
<path transform="matrix(1,0,0,-1,696.467,364.9262)" d="M0 0C0 3.012 1.453 4.517 4.365 4.517H48.743V18.372H-1.206C-5.824 18.372-9.542 16.965-12.348 14.157-15.16 11.344-16.566 7.579-16.566 2.862V-12.651H-36.746V-26.505H-16.566V-87.047H0V-26.505H20.784V-12.651H0Z" fill="#EAE3DA"/>
<path transform="matrix(1,0,0,-1,778.8427,380.0625)" d="M0 0C-5.824 3.062-12.451 4.594-19.878 4.594-27.311 4.594-33.938 3.062-39.759 0-45.582-3.062-50.174-7.453-53.539-13.178-56.904-18.899-58.583-25.729-58.583-33.658V-35.917C-58.583-43.85-56.904-50.653-53.539-56.324-50.174-61.996-45.582-66.363-39.759-69.425-33.938-72.487-27.311-74.019-19.878-74.019-12.451-74.019-5.824-72.487 0-69.425 5.821-66.363 10.413-61.996 13.777-56.324 17.142-50.653 18.824-43.85 18.824-35.917V-33.658C18.824-25.729 17.142-18.899 13.777-13.178 10.413-7.453 5.821-3.062 0 0M2.259-35.464C2.259-42.994 .2-48.844-3.918-53.009-8.036-57.177-13.354-59.26-19.878-59.26-26.408-59.26-31.726-57.177-35.844-53.009-39.961-48.844-42.017-42.994-42.017-35.464V-33.958C-42.017-26.531-39.961-20.707-35.844-16.49-31.726-12.274-26.408-10.165-19.878-10.165-13.254-10.165-7.906-12.274-3.841-16.49 .223-20.707 2.259-26.531 2.259-33.958Z" fill="#EAE3DA"/>
<path transform="matrix(1,0,0,-1,834.711,379.46003)" d="M0 0C-2.612-1.455-4.465-3.741-5.571-6.853H-8.13V1.883H-24.396V-72.513H-7.83V-29.289C-7.83-23.569-6.248-19.377-3.086-16.716 .076-14.057 4.165-12.724 9.189-12.724H18.524V2.182H9.642C5.824 2.182 2.612 1.453 0 0" fill="#EAE3DA"/>
<path transform="matrix(1,0,0,-1,917.9926,387.8188)" d="M0 0H-2.559C-4.265 3.012-7.001 5.824-10.766 8.436-14.53 11.044-19.978 12.351-27.108 12.351-33.332 12.351-39.029 10.845-44.197 7.833-49.371 4.82-53.536 .553-56.698-4.968-59.863-10.492-61.442-17.166-61.442-24.999V-27.257C-61.442-35.087-59.886-41.791-56.774-47.362-53.662-52.933-49.497-57.204-44.274-60.163-39.055-63.125-33.332-64.604-27.108-64.604-22.287-64.604-18.272-64.004-15.06-62.798-11.848-61.593-9.259-60.086-7.301-58.28-5.344-56.474-3.865-54.665-2.859-52.859H-.3V-75.299C-.3-78.311-1.756-79.817-4.665-79.817H-49.244V-94.273H.753C5.471-94.273 9.212-92.864 11.974-90.056 14.736-87.244 16.116-83.479 16.116-78.761V10.242H0ZM-.147-26.805C-.147-34.134-2.259-39.859-6.474-43.974-10.689-48.091-16.013-50.147-22.437-50.147-28.864-50.147-34.185-48.091-38.402-43.974-42.618-39.859-44.727-34.134-44.727-26.805V-25.449C-44.727-18.022-42.618-12.298-38.402-8.283-34.185-4.268-28.864-2.259-22.437-2.259-15.913-2.259-10.566-4.268-6.401-8.283-2.235-12.298-.147-18.022-.147-25.449Z" fill="#EAE3DA"/>
<path transform="matrix(1,0,0,-1,1019.9456,413.42073)" d="M0 0C0 7.53-1.506 14.157-4.518 19.881-7.53 25.602-11.745 30.046-17.166 33.208-22.59 36.37-28.863 37.953-35.99 37.953-43.32 37.953-49.797 36.37-55.418 33.208-61.042 30.046-65.409 25.578-68.522 19.804-71.634 14.03-73.187 7.28-73.187-.45V-2.259C-73.187-9.989-71.607-16.742-68.445-22.514-65.28-28.287-60.866-32.755-55.192-35.917-49.52-39.079-42.97-40.661-35.537-40.661-28.813-40.661-23.266-39.579-18.898-37.423-14.53-35.264-11.018-32.655-8.356-29.59-5.697-26.531-3.665-23.592-2.259-20.78L-15.813-13.854C-17.319-17.069-19.477-19.931-22.287-22.437-25.098-24.948-29.366-26.202-35.087-26.202-41.014-26.202-45.982-24.372-49.997-20.707-54.015-17.042-56.121-12.148-56.321-6.024H0ZM-56.171 6.477C-55.368 11.695-53.232 15.813-49.771 18.825-46.309 21.837-41.767 23.342-36.143 23.342-30.619 23.342-26.125 21.837-22.663 18.825-19.201 15.813-17.266 11.695-16.866 6.477Z" fill="#EAE3DA"/>
</g>
<path transform="matrix(1,0,0,-1,0,1080)" d="M438.139 625.716H470.247V657.824H438.139Z" fill="#EAE3DA"/>
<g clip-path="url(#clip_4)">
<path transform="matrix(1,0,0,-1,341.0407,266.31629)" d="M0 0C-51.825 0-93.986-42.162-93.986-93.984-93.986-145.807-51.825-187.968 0-187.968 51.823-187.968 93.984-145.807 93.984-93.984 93.984-42.162 51.823 0 0 0M0-163.718C-38.452-163.718-69.734-132.435-69.734-93.984-69.734-55.535-38.452-24.253 0-24.253 38.449-24.253 69.732-55.535 69.732-93.984 69.732-132.435 38.449-163.718 0-163.718" fill="#EAE3DA"/>
<path transform="matrix(1,0,0,-1,591.4279,389.7719)" d="M0 0C0-1.556-.941-2.958-2.382-3.546-3.821-4.134-5.473-3.794-6.563-2.685L-130.548 123.456H-161.928L12.111-63.293C12.836-64.071 13.851-64.512 14.914-64.512H21.096C23.212-64.512 24.927-62.798 24.927-60.682V123.604H0Z" fill="#EAE3DA"/>
<path transform="matrix(1,0,0,-1,1297.3123,628.2667)" d="M0 0C0 3.012 1.453 4.517 4.365 4.517H48.743V18.372H-1.206C-5.824 18.372-9.542 16.965-12.348 14.157-15.16 11.344-16.566 7.579-16.566 2.862V-12.651H-36.746V-26.505H-16.566V-87.047H0V-26.505H20.784V-12.651H0Z" fill="#EAE3DA"/>
<path transform="matrix(1,0,0,-1,1379.6878,643.403)" d="M0 0C-5.824 3.062-12.451 4.594-19.877 4.594-27.311 4.594-33.938 3.062-39.759 0-45.582-3.062-50.174-7.453-53.539-13.178-56.904-18.899-58.583-25.729-58.583-33.658V-35.917C-58.583-43.85-56.904-50.653-53.539-56.324-50.174-61.996-45.582-66.363-39.759-69.425-33.938-72.487-27.311-74.02-19.877-74.02-12.451-74.02-5.824-72.487 0-69.425 5.821-66.363 10.413-61.996 13.778-56.324 17.143-50.653 18.825-43.85 18.825-35.917V-33.658C18.825-25.729 17.143-18.899 13.778-13.178 10.413-7.453 5.821-3.062 0 0M2.259-35.465C2.259-42.994 .2-48.844-3.918-53.009-8.036-57.177-13.354-59.26-19.877-59.26-26.407-59.26-31.725-57.177-35.844-53.009-39.961-48.844-42.017-42.994-42.017-35.465V-33.958C-42.017-26.531-39.961-20.707-35.844-16.49-31.725-12.274-26.407-10.165-19.877-10.165-13.254-10.165-7.906-12.274-3.841-16.49 .223-20.707 2.259-26.531 2.259-33.958Z" fill="#EAE3DA"/>
<path transform="matrix(1,0,0,-1,1435.5562,642.80056)" d="M0 0C-2.612-1.455-4.465-3.741-5.571-6.853H-8.13V1.883H-24.396V-72.513H-7.83V-29.289C-7.83-23.568-6.248-19.377-3.086-16.716 .076-14.057 4.165-12.724 9.189-12.724H18.524V2.182H9.642C5.824 2.182 2.612 1.453 0 0" fill="#EAE3DA"/>
<path transform="matrix(1,0,0,-1,1518.8379,651.1593)" d="M0 0H-2.559C-4.265 3.012-7.001 5.824-10.766 8.436-14.531 11.044-19.978 12.351-27.108 12.351-33.332 12.351-39.029 10.845-44.197 7.833-49.371 4.82-53.536 .553-56.698-4.968-59.863-10.492-61.442-17.166-61.442-24.999V-27.258C-61.442-35.087-59.886-41.791-56.774-47.362-53.662-52.933-49.497-57.204-44.274-60.163-39.055-63.125-33.332-64.604-27.108-64.604-22.287-64.604-18.272-64.004-15.06-62.798-11.848-61.593-9.26-60.086-7.301-58.28-5.344-56.474-3.865-54.665-2.859-52.859H-.3V-75.299C-.3-78.311-1.756-79.817-4.665-79.817H-49.245V-94.274H.753C5.471-94.274 9.212-92.864 11.974-90.056 14.736-87.244 16.115-83.479 16.115-78.761V10.242H0ZM-.147-26.805C-.147-34.134-2.259-39.859-6.474-43.974-10.689-48.092-16.013-50.147-22.437-50.147-28.864-50.147-34.185-48.092-38.403-43.974-42.618-39.859-44.727-34.134-44.727-26.805V-25.449C-44.727-18.022-42.618-12.298-38.403-8.283-34.185-4.268-28.864-2.259-22.437-2.259-15.913-2.259-10.566-4.268-6.401-8.283-2.236-12.298-.147-18.022-.147-25.449Z" fill="#EAE3DA"/>
<path transform="matrix(1,0,0,-1,1620.7909,676.7612)" d="M0 0C0 7.53-1.506 14.157-4.518 19.881-7.53 25.602-11.745 30.046-17.166 33.208-22.59 36.37-28.863 37.953-35.99 37.953-43.32 37.953-49.797 36.37-55.418 33.208-61.042 30.046-65.41 25.578-68.522 19.804-71.634 14.03-73.187 7.28-73.187-.45V-2.259C-73.187-9.989-71.607-16.742-68.445-22.513-65.28-28.287-60.866-32.754-55.192-35.917-49.521-39.079-42.97-40.661-35.537-40.661-28.813-40.661-23.266-39.579-18.898-37.423-14.531-35.264-11.018-32.655-8.356-29.59-5.697-26.531-3.665-23.592-2.259-20.78L-15.813-13.854C-17.319-17.069-19.477-19.931-22.287-22.436-25.099-24.948-29.366-26.202-35.088-26.202-41.014-26.202-45.982-24.372-49.997-20.707-54.015-17.042-56.121-12.148-56.321-6.024H0ZM-56.171 6.477C-55.368 11.695-53.233 15.813-49.771 18.825-46.309 21.837-41.767 23.343-36.143 23.343-30.62 23.343-26.125 21.837-22.663 18.825-19.201 15.813-17.266 11.695-16.866 6.477Z" fill="#EAE3DA"/>
</g>
<path transform="matrix(1,0,0,-1,0,1080)" d="M1437.753 513.491H1469.862V545.60006H1437.753Z" fill="#EAE3DA"/>
<g clip-path="url(#clip_5)">
<path transform="matrix(1,0,0,-1,1340.6546,378.54133)" d="M0 0C-51.825 0-93.986-42.162-93.986-93.984-93.986-145.807-51.825-187.968 0-187.968 51.823-187.968 93.984-145.807 93.984-93.984 93.984-42.162 51.823 0 0 0M0-163.718C-38.452-163.718-69.734-132.435-69.734-93.984-69.734-55.535-38.452-24.253 0-24.253 38.449-24.253 69.732-55.535 69.732-93.984 69.732-132.435 38.449-163.718 0-163.718" fill="#EAE3DA"/>
<path transform="matrix(1,0,0,-1,1591.0418,501.99684)" d="M0 0C0-1.556-.941-2.958-2.382-3.546-3.821-4.134-5.473-3.794-6.563-2.685L-130.548 123.456H-161.928L12.111-63.293C12.836-64.07 13.851-64.512 14.914-64.512H21.096C23.212-64.512 24.927-62.798 24.927-60.682V123.604H0Z" fill="#EAE3DA"/>
</g>
<path transform="matrix(1,0,0,-1,0,1080)" d="M639.935 209.476H672.04299V241.584H639.935Z" fill="#EAE3DA"/>
<g clip-path="url(#clip_6)">
<path transform="matrix(1,0,0,-1,542.8363,682.55569)" d="M0 0C-51.825 0-93.986-42.162-93.986-93.984-93.986-145.807-51.825-187.968 0-187.968 51.823-187.968 93.984-145.807 93.984-93.984 93.984-42.162 51.823 0 0 0M0-163.718C-38.452-163.718-69.734-132.435-69.734-93.984-69.734-55.535-38.452-24.253 0-24.253 38.449-24.253 69.731-55.535 69.731-93.984 69.731-132.435 38.449-163.718 0-163.718" fill="#EAE3DA"/>
<path transform="matrix(1,0,0,-1,793.2235,806.0112)" d="M0 0C0-1.556-.942-2.958-2.382-3.546-3.821-4.134-5.473-3.794-6.563-2.686L-130.549 123.456H-161.928L12.111-63.293C12.836-64.07 13.851-64.512 14.914-64.512H21.096C23.212-64.512 24.927-62.798 24.927-60.682V123.604H0Z" fill="#EAE3DA"/>
</g>
</svg>
